# PS1 low-poly fleshy human v2
mtllib human_ps1_fleshy_v2.mtl
v -0.61056 1.69644 0.00000
v -0.56939 1.67405 -0.11314
v -0.47000 1.62000 -0.16000
v -0.37061 1.56595 -0.11314
v -0.32944 1.54356 -0.00000
v -0.37061 1.56595 0.11314
v -0.47000 1.62000 0.16000
v -0.56939 1.67405 0.11314
v -0.92056 1.12644 0.00000
v -0.87939 1.10405 -0.11314
v -0.78000 1.05000 -0.16000
v -0.68061 0.99595 -0.11314
v -0.63944 0.97356 -0.00000
v -0.68061 0.99595 0.11314
v -0.78000 1.05000 0.16000
v -0.87939 1.10405 0.11314
v 0.61056 1.69644 0.00000
v 0.56939 1.67405 0.11314
v 0.47000 1.62000 0.16000
v 0.37061 1.56595 0.11314
v 0.32944 1.54356 0.00000
v 0.37061 1.56595 -0.11314
v 0.47000 1.62000 -0.16000
v 0.56939 1.67405 -0.11314
v 0.92056 1.12644 0.00000
v 0.87939 1.10405 0.11314
v 0.78000 1.05000 0.16000
v 0.68061 0.99595 0.11314
v 0.63944 0.97356 0.00000
v 0.68061 0.99595 -0.11314
v 0.78000 1.05000 -0.16000
v 0.87939 1.10405 -0.11314
v -0.64163 1.02871 0.00000
v -0.68216 1.03495 0.09899
v -0.78000 1.05000 0.14000
v -0.87784 1.06505 0.09899
v -0.91837 1.07129 0.00000
v -0.87784 1.06505 -0.09899
v -0.78000 1.05000 -0.14000
v -0.68216 1.03495 -0.09899
v -0.72163 0.50871 0.00000
v -0.76216 0.51495 0.09899
v -0.86000 0.53000 0.14000
v -0.95784 0.54505 0.09899
v -0.99837 0.55129 0.00000
v -0.95784 0.54505 -0.09899
v -0.86000 0.53000 -0.14000
v -0.76216 0.51495 -0.09899
v 0.91837 1.07129 0.00000
v 0.87784 1.06505 0.09899
v 0.78000 1.05000 0.14000
v 0.68216 1.03495 0.09899
v 0.64163 1.02871 0.00000
v 0.68216 1.03495 -0.09899
v 0.78000 1.05000 -0.14000
v 0.87784 1.06505 -0.09899
v 0.99837 0.55129 0.00000
v 0.95784 0.54505 0.09899
v 0.86000 0.53000 0.14000
v 0.76216 0.51495 0.09899
v 0.72163 0.50871 0.00000
v 0.76216 0.51495 -0.09899
v 0.86000 0.53000 -0.14000
v 0.95784 0.54505 -0.09899
v -0.05037 0.50783 0.00000
v -0.10884 0.51139 0.14142
v -0.25000 0.52000 0.20000
v -0.39116 0.52861 0.14142
v -0.44963 0.53217 0.00000
v -0.39116 0.52861 -0.14142
v -0.25000 0.52000 -0.20000
v -0.10884 0.51139 -0.14142
v -0.10037 -0.31217 0.00000
v -0.15884 -0.30861 0.14142
v -0.30000 -0.30000 0.20000
v -0.44116 -0.29139 0.14142
v -0.49963 -0.28783 0.00000
v -0.44116 -0.29139 -0.14142
v -0.30000 -0.30000 -0.20000
v -0.15884 -0.30861 -0.14142
v 0.44963 0.53217 0.00000
v 0.39116 0.52861 0.14142
v 0.25000 0.52000 0.20000
v 0.10884 0.51139 0.14142
v 0.05037 0.50783 0.00000
v 0.10884 0.51139 -0.14142
v 0.25000 0.52000 -0.20000
v 0.39116 0.52861 -0.14142
v 0.49963 -0.28783 0.00000
v 0.44116 -0.29139 0.14142
v 0.30000 -0.30000 0.20000
v 0.15884 -0.30861 0.14142
v 0.10037 -0.31217 0.00000
v 0.15884 -0.30861 -0.14142
v 0.30000 -0.30000 -0.20000
v 0.44116 -0.29139 -0.14142
v -0.15006 -0.30417 0.00000
v -0.19397 -0.30295 0.10607
v -0.30000 -0.30000 0.15000
v -0.40603 -0.29705 0.10607
v -0.44994 -0.29583 0.00000
v -0.40603 -0.29705 -0.10607
v -0.30000 -0.30000 -0.15000
v -0.19397 -0.30295 -0.10607
v -0.17006 -1.02417 0.00000
v -0.21397 -1.02295 0.10607
v -0.32000 -1.02000 0.15000
v -0.42603 -1.01705 0.10607
v -0.46994 -1.01583 0.00000
v -0.42603 -1.01705 -0.10607
v -0.32000 -1.02000 -0.15000
v -0.21397 -1.02295 -0.10607
v 0.44994 -0.29583 0.00000
v 0.40603 -0.29705 0.10607
v 0.30000 -0.30000 0.15000
v 0.19397 -0.30295 0.10607
v 0.15006 -0.30417 0.00000
v 0.19397 -0.30295 -0.10607
v 0.30000 -0.30000 -0.15000
v 0.40603 -0.29705 -0.10607
v 0.46994 -1.01583 0.00000
v 0.42603 -1.01705 0.10607
v 0.32000 -1.02000 0.15000
v 0.21397 -1.02295 0.10607
v 0.17006 -1.02417 0.00000
v 0.21397 -1.02295 -0.10607
v 0.32000 -1.02000 -0.15000
v 0.42603 -1.01705 -0.10607
usemtl shirt
f 1 2 10 9
f 2 3 11 10
f 3 4 12 11
f 4 5 13 12
f 5 6 14 13
f 6 7 15 14
f 7 8 16 15
f 8 1 9 16
f 17 18 26 25
f 18 19 27 26
f 19 20 28 27
f 20 21 29 28
f 21 22 30 29
f 22 23 31 30
f 23 24 32 31
f 24 17 25 32
usemtl skin
f 33 34 42 41
f 34 35 43 42
f 35 36 44 43
f 36 37 45 44
f 37 38 46 45
f 38 39 47 46
f 39 40 48 47
f 40 33 41 48
f 49 50 58 57
f 50 51 59 58
f 51 52 60 59
f 52 53 61 60
f 53 54 62 61
f 54 55 63 62
f 55 56 64 63
f 56 49 57 64
usemtl pants
f 65 66 74 73
f 66 67 75 74
f 67 68 76 75
f 68 69 77 76
f 69 70 78 77
f 70 71 79 78
f 71 72 80 79
f 72 65 73 80
f 81 82 90 89
f 82 83 91 90
f 83 84 92 91
f 84 85 93 92
f 85 86 94 93
f 86 87 95 94
f 87 88 96 95
f 88 81 89 96
usemtl skin
f 97 98 106 105
f 98 99 107 106
f 99 100 108 107
f 100 101 109 108
f 101 102 110 109
f 102 103 111 110
f 103 104 112 111
f 104 97 105 112
f 113 114 122 121
f 114 115 123 122
f 115 116 124 123
f 116 117 125 124
f 117 118 126 125
f 118 119 127 126
f 119 120 128 127
f 120 113 121 128
