# WOLBET PS1 HUMAN V1
# Low-poly realistic-proportion human for Three.js / OBJLoader
# ~538 vertices / 740 triangles
mtllib human_ps1_v1.mtl
v 0.00000 1.90000 0.00000
v 0.00000 1.90000 0.00000
v 0.00000 1.90000 0.00000
v 0.00000 1.90000 0.00000
v 0.00000 1.90000 0.00000
v 0.00000 1.90000 0.00000
v 0.00000 1.90000 0.00000
v 0.00000 1.90000 0.00000
v 0.00000 1.90000 0.00000
v 0.00000 1.90000 0.00000
v 0.08000 1.87321 0.00000
v 0.06472 1.87321 0.04114
v 0.02472 1.87321 0.06657
v -0.02472 1.87321 0.06657
v -0.06472 1.87321 0.04114
v -0.08000 1.87321 0.00000
v -0.06472 1.87321 -0.04114
v -0.02472 1.87321 -0.06657
v 0.02472 1.87321 -0.06657
v 0.06472 1.87321 -0.04114
v 0.13856 1.80000 0.00000
v 0.11210 1.80000 0.07127
v 0.04282 1.80000 0.11531
v -0.04282 1.80000 0.11531
v -0.11210 1.80000 0.07127
v -0.13856 1.80000 0.00000
v -0.11210 1.80000 -0.07127
v -0.04282 1.80000 -0.11531
v 0.04282 1.80000 -0.11531
v 0.11210 1.80000 -0.07127
v 0.16000 1.70000 0.00000
v 0.12944 1.70000 0.08229
v 0.04944 1.70000 0.13315
v -0.04944 1.70000 0.13315
v -0.12944 1.70000 0.08229
v -0.16000 1.70000 0.00000
v -0.12944 1.70000 -0.08229
v -0.04944 1.70000 -0.13315
v 0.04944 1.70000 -0.13315
v 0.12944 1.70000 -0.08229
v 0.13856 1.60000 0.00000
v 0.11210 1.60000 0.07127
v 0.04282 1.60000 0.11531
v -0.04282 1.60000 0.11531
v -0.11210 1.60000 0.07127
v -0.13856 1.60000 0.00000
v -0.11210 1.60000 -0.07127
v -0.04282 1.60000 -0.11531
v 0.04282 1.60000 -0.11531
v 0.11210 1.60000 -0.07127
v 0.08000 1.52679 0.00000
v 0.06472 1.52679 0.04114
v 0.02472 1.52679 0.06657
v -0.02472 1.52679 0.06657
v -0.06472 1.52679 0.04114
v -0.08000 1.52679 0.00000
v -0.06472 1.52679 -0.04114
v -0.02472 1.52679 -0.06657
v 0.02472 1.52679 -0.06657
v 0.06472 1.52679 -0.04114
v 0.00000 1.50000 0.00000
v 0.00000 1.50000 0.00000
v 0.00000 1.50000 0.00000
v -0.00000 1.50000 0.00000
v -0.00000 1.50000 0.00000
v -0.00000 1.50000 0.00000
v -0.00000 1.50000 -0.00000
v -0.00000 1.50000 -0.00000
v 0.00000 1.50000 -0.00000
v 0.00000 1.50000 -0.00000
v 0.00000 1.57000 0.00000
v 0.00000 1.57000 0.00000
v 0.00000 1.57000 0.00000
v 0.00000 1.57000 0.00000
v 0.00000 1.57000 0.00000
v 0.00000 1.57000 0.00000
v 0.00000 1.57000 0.00000
v 0.00000 1.57000 0.00000
v 0.05303 1.54071 0.00000
v 0.03750 1.54071 0.03500
v 0.00000 1.54071 0.04950
v -0.03750 1.54071 0.03500
v -0.05303 1.54071 0.00000
v -0.03750 1.54071 -0.03500
v -0.00000 1.54071 -0.04950
v 0.03750 1.54071 -0.03500
v 0.07500 1.47000 0.00000
v 0.05303 1.47000 0.04950
v 0.00000 1.47000 0.07000
v -0.05303 1.47000 0.04950
v -0.07500 1.47000 0.00000
v -0.05303 1.47000 -0.04950
v -0.00000 1.47000 -0.07000
v 0.05303 1.47000 -0.04950
v 0.05303 1.39929 0.00000
v 0.03750 1.39929 0.03500
v 0.00000 1.39929 0.04950
v -0.03750 1.39929 0.03500
v -0.05303 1.39929 0.00000
v -0.03750 1.39929 -0.03500
v -0.00000 1.39929 -0.04950
v 0.03750 1.39929 -0.03500
v 0.00000 1.37000 0.00000
v 0.00000 1.37000 0.00000
v 0.00000 1.37000 0.00000
v -0.00000 1.37000 0.00000
v -0.00000 1.37000 0.00000
v -0.00000 1.37000 -0.00000
v -0.00000 1.37000 -0.00000
v 0.00000 1.37000 -0.00000
v -0.20000 1.02000 -0.11500
v 0.20000 1.02000 -0.11500
v 0.20000 1.48000 -0.11500
v -0.20000 1.48000 -0.11500
v -0.20000 1.02000 0.11500
v 0.20000 1.02000 0.11500
v 0.20000 1.48000 0.11500
v -0.20000 1.48000 0.11500
v -0.18000 1.20000 -0.13000
v 0.18000 1.20000 -0.13000
v 0.18000 1.48000 -0.13000
v -0.18000 1.48000 -0.13000
v -0.18000 1.20000 0.13000
v 0.18000 1.20000 0.13000
v 0.18000 1.48000 0.13000
v -0.18000 1.48000 0.13000
v -0.17000 0.87000 -0.10500
v 0.17000 0.87000 -0.10500
v 0.17000 1.11000 -0.10500
v -0.17000 1.11000 -0.10500
v -0.17000 0.87000 0.10500
v 0.17000 0.87000 0.10500
v 0.17000 1.11000 0.10500
v -0.17000 1.11000 0.10500
v -0.23500 1.47000 0.00000
v -0.23500 1.47000 0.00000
v -0.23500 1.47000 0.00000
v -0.23500 1.47000 0.00000
v -0.23500 1.47000 0.00000
v -0.23500 1.47000 0.00000
v -0.23500 1.47000 0.00000
v -0.23500 1.47000 0.00000
v -0.17490 1.44364 0.00000
v -0.19250 1.44364 0.04250
v -0.23500 1.44364 0.06010
v -0.27750 1.44364 0.04250
v -0.29510 1.44364 0.00000
v -0.27750 1.44364 -0.04250
v -0.23500 1.44364 -0.06010
v -0.19250 1.44364 -0.04250
v -0.15000 1.38000 0.00000
v -0.17490 1.38000 0.06010
v -0.23500 1.38000 0.08500
v -0.29510 1.38000 0.06010
v -0.32000 1.38000 0.00000
v -0.29510 1.38000 -0.06010
v -0.23500 1.38000 -0.08500
v -0.17490 1.38000 -0.06010
v -0.17490 1.31636 0.00000
v -0.19250 1.31636 0.04250
v -0.23500 1.31636 0.06010
v -0.27750 1.31636 0.04250
v -0.29510 1.31636 0.00000
v -0.27750 1.31636 -0.04250
v -0.23500 1.31636 -0.06010
v -0.19250 1.31636 -0.04250
v -0.23500 1.29000 0.00000
v -0.23500 1.29000 0.00000
v -0.23500 1.29000 0.00000
v -0.23500 1.29000 0.00000
v -0.23500 1.29000 0.00000
v -0.23500 1.29000 -0.00000
v -0.23500 1.29000 -0.00000
v -0.23500 1.29000 -0.00000
v -0.18500 1.19000 0.00000
v -0.20000 1.36000 0.00000
v -0.21136 1.19000 0.05473
v -0.22071 1.36000 0.04300
v -0.27058 1.19000 0.06824
v -0.26724 1.36000 0.05362
v -0.31807 1.19000 0.03037
v -0.30455 1.36000 0.02386
v -0.31807 1.19000 -0.03037
v -0.30455 1.36000 -0.02386
v -0.27058 1.19000 -0.06824
v -0.26724 1.36000 -0.05362
v -0.21136 1.19000 -0.05473
v -0.22071 1.36000 -0.04300
v -0.25500 1.19000 0.00000
v -0.25500 1.36000 0.00000
v -0.20000 1.02000 0.00000
v -0.21000 1.20000 0.00000
v -0.22071 1.02000 0.04300
v -0.22694 1.20000 0.03518
v -0.26724 1.02000 0.05362
v -0.26501 1.20000 0.04387
v -0.30455 1.02000 0.02386
v -0.29554 1.20000 0.01952
v -0.30455 1.02000 -0.02386
v -0.29554 1.20000 -0.01952
v -0.26724 1.02000 -0.05362
v -0.26501 1.20000 -0.04387
v -0.22071 1.02000 -0.04300
v -0.22694 1.20000 -0.03518
v -0.25500 1.02000 0.00000
v -0.25500 1.20000 0.00000
v -0.25500 1.04500 0.00000
v -0.25500 1.04500 0.00000
v -0.25500 1.04500 0.00000
v -0.25500 1.04500 0.00000
v -0.25500 1.04500 0.00000
v -0.25500 1.04500 0.00000
v -0.25500 1.04500 0.00000
v -0.21611 1.02303 0.00000
v -0.23075 1.02303 0.02488
v -0.26365 1.02303 0.03102
v -0.29004 1.02303 0.01381
v -0.29004 1.02303 -0.01381
v -0.26365 1.02303 -0.03102
v -0.23075 1.02303 -0.02488
v -0.20000 0.97000 0.00000
v -0.22071 0.97000 0.03518
v -0.26724 0.97000 0.04387
v -0.30455 0.97000 0.01952
v -0.30455 0.97000 -0.01952
v -0.26724 0.97000 -0.04387
v -0.22071 0.97000 -0.03518
v -0.21611 0.91697 0.00000
v -0.23075 0.91697 0.02488
v -0.26365 0.91697 0.03102
v -0.29004 0.91697 0.01381
v -0.29004 0.91697 -0.01381
v -0.26365 0.91697 -0.03102
v -0.23075 0.91697 -0.02488
v -0.25500 0.89500 0.00000
v -0.25500 0.89500 0.00000
v -0.25500 0.89500 0.00000
v -0.25500 0.89500 0.00000
v -0.25500 0.89500 -0.00000
v -0.25500 0.89500 -0.00000
v -0.25500 0.89500 -0.00000
v 0.23500 1.47000 0.00000
v 0.23500 1.47000 0.00000
v 0.23500 1.47000 0.00000
v 0.23500 1.47000 0.00000
v 0.23500 1.47000 0.00000
v 0.23500 1.47000 0.00000
v 0.23500 1.47000 0.00000
v 0.23500 1.47000 0.00000
v 0.29510 1.44364 0.00000
v 0.27750 1.44364 0.04250
v 0.23500 1.44364 0.06010
v 0.19250 1.44364 0.04250
v 0.17490 1.44364 0.00000
v 0.19250 1.44364 -0.04250
v 0.23500 1.44364 -0.06010
v 0.27750 1.44364 -0.04250
v 0.32000 1.38000 0.00000
v 0.29510 1.38000 0.06010
v 0.23500 1.38000 0.08500
v 0.17490 1.38000 0.06010
v 0.15000 1.38000 0.00000
v 0.17490 1.38000 -0.06010
v 0.23500 1.38000 -0.08500
v 0.29510 1.38000 -0.06010
v 0.29510 1.31636 0.00000
v 0.27750 1.31636 0.04250
v 0.23500 1.31636 0.06010
v 0.19250 1.31636 0.04250
v 0.17490 1.31636 0.00000
v 0.19250 1.31636 -0.04250
v 0.23500 1.31636 -0.06010
v 0.27750 1.31636 -0.04250
v 0.23500 1.29000 0.00000
v 0.23500 1.29000 0.00000
v 0.23500 1.29000 0.00000
v 0.23500 1.29000 0.00000
v 0.23500 1.29000 0.00000
v 0.23500 1.29000 -0.00000
v 0.23500 1.29000 -0.00000
v 0.23500 1.29000 -0.00000
v 0.32500 1.19000 0.00000
v 0.31000 1.36000 0.00000
v 0.29864 1.19000 0.05473
v 0.28929 1.36000 0.04300
v 0.23942 1.19000 0.06824
v 0.24276 1.36000 0.05362
v 0.19193 1.19000 0.03037
v 0.20545 1.36000 0.02386
v 0.19193 1.19000 -0.03037
v 0.20545 1.36000 -0.02386
v 0.23942 1.19000 -0.06824
v 0.24276 1.36000 -0.05362
v 0.29864 1.19000 -0.05473
v 0.28929 1.36000 -0.04300
v 0.25500 1.19000 0.00000
v 0.25500 1.36000 0.00000
v 0.31000 1.02000 0.00000
v 0.30000 1.20000 0.00000
v 0.28929 1.02000 0.04300
v 0.28306 1.20000 0.03518
v 0.24276 1.02000 0.05362
v 0.24499 1.20000 0.04387
v 0.20545 1.02000 0.02386
v 0.21446 1.20000 0.01952
v 0.20545 1.02000 -0.02386
v 0.21446 1.20000 -0.01952
v 0.24276 1.02000 -0.05362
v 0.24499 1.20000 -0.04387
v 0.28929 1.02000 -0.04300
v 0.28306 1.20000 -0.03518
v 0.25500 1.02000 0.00000
v 0.25500 1.20000 0.00000
v 0.25500 1.04500 0.00000
v 0.25500 1.04500 0.00000
v 0.25500 1.04500 0.00000
v 0.25500 1.04500 0.00000
v 0.25500 1.04500 0.00000
v 0.25500 1.04500 0.00000
v 0.25500 1.04500 0.00000
v 0.29389 1.02303 0.00000
v 0.27925 1.02303 0.02488
v 0.24635 1.02303 0.03102
v 0.21996 1.02303 0.01381
v 0.21996 1.02303 -0.01381
v 0.24635 1.02303 -0.03102
v 0.27925 1.02303 -0.02488
v 0.31000 0.97000 0.00000
v 0.28929 0.97000 0.03518
v 0.24276 0.97000 0.04387
v 0.20545 0.97000 0.01952
v 0.20545 0.97000 -0.01952
v 0.24276 0.97000 -0.04387
v 0.28929 0.97000 -0.03518
v 0.29389 0.91697 0.00000
v 0.27925 0.91697 0.02488
v 0.24635 0.91697 0.03102
v 0.21996 0.91697 0.01381
v 0.21996 0.91697 -0.01381
v 0.24635 0.91697 -0.03102
v 0.27925 0.91697 -0.02488
v 0.25500 0.89500 0.00000
v 0.25500 0.89500 0.00000
v 0.25500 0.89500 0.00000
v 0.25500 0.89500 0.00000
v 0.25500 0.89500 -0.00000
v 0.25500 0.89500 -0.00000
v 0.25500 0.89500 -0.00000
v -0.02000 0.67000 0.00000
v -0.03000 0.95000 0.00000
v -0.04197 0.67000 0.05303
v -0.04904 0.95000 0.04596
v -0.09500 0.67000 0.07500
v -0.09500 0.95000 0.06500
v -0.14803 0.67000 0.05303
v -0.14096 0.95000 0.04596
v -0.17000 0.67000 0.00000
v -0.16000 0.95000 0.00000
v -0.14803 0.67000 -0.05303
v -0.14096 0.95000 -0.04596
v -0.09500 0.67000 -0.07500
v -0.09500 0.95000 -0.06500
v -0.04197 0.67000 -0.05303
v -0.04904 0.95000 -0.04596
v -0.09500 0.67000 0.00000
v -0.09500 0.95000 0.00000
v -0.03700 0.27000 0.00000
v -0.05000 0.68000 0.00000
v -0.05884 0.27000 0.04535
v -0.06694 0.68000 0.03518
v -0.10791 0.27000 0.05655
v -0.10501 0.68000 0.04387
v -0.14726 0.27000 0.02517
v -0.13554 0.68000 0.01952
v -0.14726 0.27000 -0.02517
v -0.13554 0.68000 -0.01952
v -0.10791 0.27000 -0.05655
v -0.10501 0.68000 -0.04387
v -0.05884 0.27000 -0.04535
v -0.06694 0.68000 -0.03518
v -0.09500 0.27000 0.00000
v -0.09500 0.68000 0.00000
v -0.19500 0.02000 -0.04000
v 0.00500 0.02000 -0.04000
v 0.00500 0.34000 -0.04000
v -0.19500 0.34000 -0.04000
v -0.19500 0.02000 0.11000
v 0.00500 0.02000 0.11000
v 0.00500 0.34000 0.11000
v -0.19500 0.34000 0.11000
v 0.17000 0.67000 0.00000
v 0.16000 0.95000 0.00000
v 0.14803 0.67000 0.05303
v 0.14096 0.95000 0.04596
v 0.09500 0.67000 0.07500
v 0.09500 0.95000 0.06500
v 0.04197 0.67000 0.05303
v 0.04904 0.95000 0.04596
v 0.02000 0.67000 0.00000
v 0.03000 0.95000 0.00000
v 0.04197 0.67000 -0.05303
v 0.04904 0.95000 -0.04596
v 0.09500 0.67000 -0.07500
v 0.09500 0.95000 -0.06500
v 0.14803 0.67000 -0.05303
v 0.14096 0.95000 -0.04596
v 0.09500 0.67000 0.00000
v 0.09500 0.95000 0.00000
v 0.15300 0.27000 0.00000
v 0.14000 0.68000 0.00000
v 0.13116 0.27000 0.04535
v 0.12306 0.68000 0.03518
v 0.08209 0.27000 0.05655
v 0.08499 0.68000 0.04387
v 0.04274 0.27000 0.02517
v 0.05446 0.68000 0.01952
v 0.04274 0.27000 -0.02517
v 0.05446 0.68000 -0.01952
v 0.08209 0.27000 -0.05655
v 0.08499 0.68000 -0.04387
v 0.13116 0.27000 -0.04535
v 0.12306 0.68000 -0.03518
v 0.09500 0.27000 0.00000
v 0.09500 0.68000 0.00000
v -0.00500 0.02000 -0.04000
v 0.19500 0.02000 -0.04000
v 0.19500 0.34000 -0.04000
v -0.00500 0.34000 -0.04000
v -0.00500 0.02000 0.11000
v 0.19500 0.02000 0.11000
v 0.19500 0.34000 0.11000
v -0.00500 0.34000 0.11000
v -0.02500 1.66500 -0.18000
v 0.02500 1.66500 -0.18000
v 0.02500 1.71500 -0.18000
v -0.02500 1.71500 -0.18000
v -0.02500 1.66500 -0.11000
v 0.02500 1.66500 -0.11000
v 0.02500 1.71500 -0.11000
v -0.02500 1.71500 -0.11000
v -0.05500 1.75300 -0.13200
v -0.05500 1.75300 -0.13200
v -0.05500 1.75300 -0.13200
v -0.05500 1.75300 -0.13200
v -0.05500 1.75300 -0.13200
v -0.05500 1.75300 -0.13200
v -0.03941 1.74400 -0.13200
v -0.04721 1.74400 -0.12300
v -0.06279 1.74400 -0.12300
v -0.07059 1.74400 -0.13200
v -0.06279 1.74400 -0.14100
v -0.04721 1.74400 -0.14100
v -0.03941 1.72600 -0.13200
v -0.04721 1.72600 -0.12300
v -0.06279 1.72600 -0.12300
v -0.07059 1.72600 -0.13200
v -0.06279 1.72600 -0.14100
v -0.04721 1.72600 -0.14100
v -0.05500 1.71700 -0.13200
v -0.05500 1.71700 -0.13200
v -0.05500 1.71700 -0.13200
v -0.05500 1.71700 -0.13200
v -0.05500 1.71700 -0.13200
v -0.05500 1.71700 -0.13200
v 0.05500 1.75300 -0.13200
v 0.05500 1.75300 -0.13200
v 0.05500 1.75300 -0.13200
v 0.05500 1.75300 -0.13200
v 0.05500 1.75300 -0.13200
v 0.05500 1.75300 -0.13200
v 0.07059 1.74400 -0.13200
v 0.06279 1.74400 -0.12300
v 0.04721 1.74400 -0.12300
v 0.03941 1.74400 -0.13200
v 0.04721 1.74400 -0.14100
v 0.06279 1.74400 -0.14100
v 0.07059 1.72600 -0.13200
v 0.06279 1.72600 -0.12300
v 0.04721 1.72600 -0.12300
v 0.03941 1.72600 -0.13200
v 0.04721 1.72600 -0.14100
v 0.06279 1.72600 -0.14100
v 0.05500 1.71700 -0.13200
v 0.05500 1.71700 -0.13200
v 0.05500 1.71700 -0.13200
v 0.05500 1.71700 -0.13200
v 0.05500 1.71700 -0.13200
v 0.05500 1.71700 -0.13200
v 0.00000 1.90000 0.00000
v 0.00000 1.90000 0.00000
v 0.00000 1.90000 0.00000
v 0.00000 1.90000 0.00000
v 0.00000 1.90000 0.00000
v 0.00000 1.90000 0.00000
v 0.00000 1.90000 0.00000
v 0.00000 1.90000 0.00000
v 0.00000 1.90000 0.00000
v 0.00000 1.90000 0.00000
v 0.11667 1.87071 0.00000
v 0.09439 1.87071 0.06027
v 0.03605 1.87071 0.09751
v -0.03605 1.87071 0.09751
v -0.09439 1.87071 0.06027
v -0.11667 1.87071 0.00000
v -0.09439 1.87071 -0.06027
v -0.03605 1.87071 -0.09751
v 0.03605 1.87071 -0.09751
v 0.09439 1.87071 -0.06027
v 0.16500 1.80000 0.00000
v 0.13349 1.80000 0.08523
v 0.05099 1.80000 0.13790
v -0.05099 1.80000 0.13790
v -0.13349 1.80000 0.08523
v -0.16500 1.80000 0.00000
v -0.13349 1.80000 -0.08523
v -0.05099 1.80000 -0.13790
v 0.05099 1.80000 -0.13790
v 0.13349 1.80000 -0.08523
v 0.11667 1.72929 0.00000
v 0.09439 1.72929 0.06027
v 0.03605 1.72929 0.09751
v -0.03605 1.72929 0.09751
v -0.09439 1.72929 0.06027
v -0.11667 1.72929 0.00000
v -0.09439 1.72929 -0.06027
v -0.03605 1.72929 -0.09751
v 0.03605 1.72929 -0.09751
v 0.09439 1.72929 -0.06027
v 0.00000 1.70000 0.00000
v 0.00000 1.70000 0.00000
v 0.00000 1.70000 0.00000
v -0.00000 1.70000 0.00000
v -0.00000 1.70000 0.00000
v -0.00000 1.70000 0.00000
v -0.00000 1.70000 -0.00000
v -0.00000 1.70000 -0.00000
v 0.00000 1.70000 -0.00000
v 0.00000 1.70000 -0.00000

o Head
usemtl skin
s off
f 1 12 11
f 2 13 12
f 3 14 13
f 4 15 14
f 5 16 15
f 6 17 16
f 7 18 17
f 8 19 18
f 9 20 19
f 10 11 20
f 11 12 22
f 11 22 21
f 12 13 23
f 12 23 22
f 13 14 24
f 13 24 23
f 14 15 25
f 14 25 24
f 15 16 26
f 15 26 25
f 16 17 27
f 16 27 26
f 17 18 28
f 17 28 27
f 18 19 29
f 18 29 28
f 19 20 30
f 19 30 29
f 20 11 21
f 20 21 30
f 21 22 32
f 21 32 31
f 22 23 33
f 22 33 32
f 23 24 34
f 23 34 33
f 24 25 35
f 24 35 34
f 25 26 36
f 25 36 35
f 26 27 37
f 26 37 36
f 27 28 38
f 27 38 37
f 28 29 39
f 28 39 38
f 29 30 40
f 29 40 39
f 30 21 31
f 30 31 40
f 31 32 42
f 31 42 41
f 32 33 43
f 32 43 42
f 33 34 44
f 33 44 43
f 34 35 45
f 34 45 44
f 35 36 46
f 35 46 45
f 36 37 47
f 36 47 46
f 37 38 48
f 37 48 47
f 38 39 49
f 38 49 48
f 39 40 50
f 39 50 49
f 40 31 41
f 40 41 50
f 41 42 52
f 41 52 51
f 42 43 53
f 42 53 52
f 43 44 54
f 43 54 53
f 44 45 55
f 44 55 54
f 45 46 56
f 45 56 55
f 46 47 57
f 46 57 56
f 47 48 58
f 47 58 57
f 48 49 59
f 48 59 58
f 49 50 60
f 49 60 59
f 50 41 51
f 50 51 60
f 51 52 62
f 52 53 63
f 53 54 64
f 54 55 65
f 55 56 66
f 56 57 67
f 57 58 68
f 58 59 69
f 59 60 70
f 60 51 61

o Neck
usemtl skin
s off
f 71 80 79
f 72 81 80
f 73 82 81
f 74 83 82
f 75 84 83
f 76 85 84
f 77 86 85
f 78 79 86
f 79 80 88
f 79 88 87
f 80 81 89
f 80 89 88
f 81 82 90
f 81 90 89
f 82 83 91
f 82 91 90
f 83 84 92
f 83 92 91
f 84 85 93
f 84 93 92
f 85 86 94
f 85 94 93
f 86 79 87
f 86 87 94
f 87 88 96
f 87 96 95
f 88 89 97
f 88 97 96
f 89 90 98
f 89 98 97
f 90 91 99
f 90 99 98
f 91 92 100
f 91 100 99
f 92 93 101
f 92 101 100
f 93 94 102
f 93 102 101
f 94 87 95
f 94 95 102
f 95 96 104
f 96 97 105
f 97 98 106
f 98 99 107
f 99 100 108
f 100 101 109
f 101 102 110
f 102 95 103

o Torso
usemtl shirt
s off
f 111 112 113
f 111 113 114
f 115 118 117
f 115 117 116
f 111 115 116
f 111 116 112
f 112 116 117
f 112 117 113
f 113 117 118
f 113 118 114
f 115 111 114
f 115 114 118

o Chest
usemtl shirt
s off
f 119 120 121
f 119 121 122
f 123 126 125
f 123 125 124
f 119 123 124
f 119 124 120
f 120 124 125
f 120 125 121
f 121 125 126
f 121 126 122
f 123 119 122
f 123 122 126

o Pelvis
usemtl pants
s off
f 127 128 129
f 127 129 130
f 131 134 133
f 131 133 132
f 127 131 132
f 127 132 128
f 128 132 133
f 128 133 129
f 129 133 134
f 129 134 130
f 131 127 130
f 131 130 134

o Shoulder
usemtl shirt
s off
f 135 144 143
f 136 145 144
f 137 146 145
f 138 147 146
f 139 148 147
f 140 149 148
f 141 150 149
f 142 143 150
f 143 144 152
f 143 152 151
f 144 145 153
f 144 153 152
f 145 146 154
f 145 154 153
f 146 147 155
f 146 155 154
f 147 148 156
f 147 156 155
f 148 149 157
f 148 157 156
f 149 150 158
f 149 158 157
f 150 143 151
f 150 151 158
f 151 152 160
f 151 160 159
f 152 153 161
f 152 161 160
f 153 154 162
f 153 162 161
f 154 155 163
f 154 163 162
f 155 156 164
f 155 164 163
f 156 157 165
f 156 165 164
f 157 158 166
f 157 166 165
f 158 151 159
f 158 159 166
f 159 160 168
f 160 161 169
f 161 162 170
f 162 163 171
f 163 164 172
f 164 165 173
f 165 166 174
f 166 159 167

o UpperArm
usemtl shirt
s off
f 175 177 178
f 175 178 176
f 177 179 180
f 177 180 178
f 179 181 182
f 179 182 180
f 181 183 184
f 181 184 182
f 183 185 186
f 183 186 184
f 185 187 188
f 185 188 186
f 187 175 176
f 187 176 188
f 189 177 175
f 190 176 178
f 189 179 177
f 190 178 180
f 189 181 179
f 190 180 182
f 189 183 181
f 190 182 184
f 189 185 183
f 190 184 186
f 189 187 185
f 190 186 188
f 189 175 187
f 190 188 176

o Forearm
usemtl skin
s off
f 191 193 194
f 191 194 192
f 193 195 196
f 193 196 194
f 195 197 198
f 195 198 196
f 197 199 200
f 197 200 198
f 199 201 202
f 199 202 200
f 201 203 204
f 201 204 202
f 203 191 192
f 203 192 204
f 205 193 191
f 206 192 194
f 205 195 193
f 206 194 196
f 205 197 195
f 206 196 198
f 205 199 197
f 206 198 200
f 205 201 199
f 206 200 202
f 205 203 201
f 206 202 204
f 205 191 203
f 206 204 192

o Hand
usemtl skin
s off
f 207 215 214
f 208 216 215
f 209 217 216
f 210 218 217
f 211 219 218
f 212 220 219
f 213 214 220
f 214 215 222
f 214 222 221
f 215 216 223
f 215 223 222
f 216 217 224
f 216 224 223
f 217 218 225
f 217 225 224
f 218 219 226
f 218 226 225
f 219 220 227
f 219 227 226
f 220 214 221
f 220 221 227
f 221 222 229
f 221 229 228
f 222 223 230
f 222 230 229
f 223 224 231
f 223 231 230
f 224 225 232
f 224 232 231
f 225 226 233
f 225 233 232
f 226 227 234
f 226 234 233
f 227 221 228
f 227 228 234
f 228 229 236
f 229 230 237
f 230 231 238
f 231 232 239
f 232 233 240
f 233 234 241
f 234 228 235

o Shoulder
usemtl shirt
s off
f 242 251 250
f 243 252 251
f 244 253 252
f 245 254 253
f 246 255 254
f 247 256 255
f 248 257 256
f 249 250 257
f 250 251 259
f 250 259 258
f 251 252 260
f 251 260 259
f 252 253 261
f 252 261 260
f 253 254 262
f 253 262 261
f 254 255 263
f 254 263 262
f 255 256 264
f 255 264 263
f 256 257 265
f 256 265 264
f 257 250 258
f 257 258 265
f 258 259 267
f 258 267 266
f 259 260 268
f 259 268 267
f 260 261 269
f 260 269 268
f 261 262 270
f 261 270 269
f 262 263 271
f 262 271 270
f 263 264 272
f 263 272 271
f 264 265 273
f 264 273 272
f 265 258 266
f 265 266 273
f 266 267 275
f 267 268 276
f 268 269 277
f 269 270 278
f 270 271 279
f 271 272 280
f 272 273 281
f 273 266 274

o UpperArm
usemtl shirt
s off
f 282 284 285
f 282 285 283
f 284 286 287
f 284 287 285
f 286 288 289
f 286 289 287
f 288 290 291
f 288 291 289
f 290 292 293
f 290 293 291
f 292 294 295
f 292 295 293
f 294 282 283
f 294 283 295
f 296 284 282
f 297 283 285
f 296 286 284
f 297 285 287
f 296 288 286
f 297 287 289
f 296 290 288
f 297 289 291
f 296 292 290
f 297 291 293
f 296 294 292
f 297 293 295
f 296 282 294
f 297 295 283

o Forearm
usemtl skin
s off
f 298 300 301
f 298 301 299
f 300 302 303
f 300 303 301
f 302 304 305
f 302 305 303
f 304 306 307
f 304 307 305
f 306 308 309
f 306 309 307
f 308 310 311
f 308 311 309
f 310 298 299
f 310 299 311
f 312 300 298
f 313 299 301
f 312 302 300
f 313 301 303
f 312 304 302
f 313 303 305
f 312 306 304
f 313 305 307
f 312 308 306
f 313 307 309
f 312 310 308
f 313 309 311
f 312 298 310
f 313 311 299

o Hand
usemtl skin
s off
f 314 322 321
f 315 323 322
f 316 324 323
f 317 325 324
f 318 326 325
f 319 327 326
f 320 321 327
f 321 322 329
f 321 329 328
f 322 323 330
f 322 330 329
f 323 324 331
f 323 331 330
f 324 325 332
f 324 332 331
f 325 326 333
f 325 333 332
f 326 327 334
f 326 334 333
f 327 321 328
f 327 328 334
f 328 329 336
f 328 336 335
f 329 330 337
f 329 337 336
f 330 331 338
f 330 338 337
f 331 332 339
f 331 339 338
f 332 333 340
f 332 340 339
f 333 334 341
f 333 341 340
f 334 328 335
f 334 335 341
f 335 336 343
f 336 337 344
f 337 338 345
f 338 339 346
f 339 340 347
f 340 341 348
f 341 335 342

o Thigh
usemtl pants
s off
f 349 351 352
f 349 352 350
f 351 353 354
f 351 354 352
f 353 355 356
f 353 356 354
f 355 357 358
f 355 358 356
f 357 359 360
f 357 360 358
f 359 361 362
f 359 362 360
f 361 363 364
f 361 364 362
f 363 349 350
f 363 350 364
f 365 351 349
f 366 350 352
f 365 353 351
f 366 352 354
f 365 355 353
f 366 354 356
f 365 357 355
f 366 356 358
f 365 359 357
f 366 358 360
f 365 361 359
f 366 360 362
f 365 363 361
f 366 362 364
f 365 349 363
f 366 364 350

o Shin
usemtl skin
s off
f 367 369 370
f 367 370 368
f 369 371 372
f 369 372 370
f 371 373 374
f 371 374 372
f 373 375 376
f 373 376 374
f 375 377 378
f 375 378 376
f 377 379 380
f 377 380 378
f 379 367 368
f 379 368 380
f 381 369 367
f 382 368 370
f 381 371 369
f 382 370 372
f 381 373 371
f 382 372 374
f 381 375 373
f 382 374 376
f 381 377 375
f 382 376 378
f 381 379 377
f 382 378 380
f 381 367 379
f 382 380 368

o Boot
usemtl boots
s off
f 383 384 385
f 383 385 386
f 387 390 389
f 387 389 388
f 383 387 388
f 383 388 384
f 384 388 389
f 384 389 385
f 385 389 390
f 385 390 386
f 387 383 386
f 387 386 390

o Thigh
usemtl pants
s off
f 391 393 394
f 391 394 392
f 393 395 396
f 393 396 394
f 395 397 398
f 395 398 396
f 397 399 400
f 397 400 398
f 399 401 402
f 399 402 400
f 401 403 404
f 401 404 402
f 403 405 406
f 403 406 404
f 405 391 392
f 405 392 406
f 407 393 391
f 408 392 394
f 407 395 393
f 408 394 396
f 407 397 395
f 408 396 398
f 407 399 397
f 408 398 400
f 407 401 399
f 408 400 402
f 407 403 401
f 408 402 404
f 407 405 403
f 408 404 406
f 407 391 405
f 408 406 392

o Shin
usemtl skin
s off
f 409 411 412
f 409 412 410
f 411 413 414
f 411 414 412
f 413 415 416
f 413 416 414
f 415 417 418
f 415 418 416
f 417 419 420
f 417 420 418
f 419 421 422
f 419 422 420
f 421 409 410
f 421 410 422
f 423 411 409
f 424 410 412
f 423 413 411
f 424 412 414
f 423 415 413
f 424 414 416
f 423 417 415
f 424 416 418
f 423 419 417
f 424 418 420
f 423 421 419
f 424 420 422
f 423 409 421
f 424 422 410

o Boot
usemtl boots
s off
f 425 426 427
f 425 427 428
f 429 432 431
f 429 431 430
f 425 429 430
f 425 430 426
f 426 430 431
f 426 431 427
f 427 431 432
f 427 432 428
f 429 425 428
f 429 428 432

o Nose
usemtl skin
s off
f 433 434 435
f 433 435 436
f 437 440 439
f 437 439 438
f 433 437 438
f 433 438 434
f 434 438 439
f 434 439 435
f 435 439 440
f 435 440 436
f 437 433 436
f 437 436 440

o EyeL
usemtl eyes
s off
f 441 448 447
f 442 449 448
f 443 450 449
f 444 451 450
f 445 452 451
f 446 447 452
f 447 448 454
f 447 454 453
f 448 449 455
f 448 455 454
f 449 450 456
f 449 456 455
f 450 451 457
f 450 457 456
f 451 452 458
f 451 458 457
f 452 447 453
f 452 453 458
f 453 454 460
f 454 455 461
f 455 456 462
f 456 457 463
f 457 458 464
f 458 453 459

o EyeR
usemtl eyes
s off
f 465 472 471
f 466 473 472
f 467 474 473
f 468 475 474
f 469 476 475
f 470 471 476
f 471 472 478
f 471 478 477
f 472 473 479
f 472 479 478
f 473 474 480
f 473 480 479
f 474 475 481
f 474 481 480
f 475 476 482
f 475 482 481
f 476 471 477
f 476 477 482
f 477 478 484
f 478 479 485
f 479 480 486
f 480 481 487
f 481 482 488
f 482 477 483

o Hair
usemtl hair
s off
f 489 500 499
f 490 501 500
f 491 502 501
f 492 503 502
f 493 504 503
f 494 505 504
f 495 506 505
f 496 507 506
f 497 508 507
f 498 499 508
f 499 500 510
f 499 510 509
f 500 501 511
f 500 511 510
f 501 502 512
f 501 512 511
f 502 503 513
f 502 513 512
f 503 504 514
f 503 514 513
f 504 505 515
f 504 515 514
f 505 506 516
f 505 516 515
f 506 507 517
f 506 517 516
f 507 508 518
f 507 518 517
f 508 499 509
f 508 509 518
f 509 510 520
f 509 520 519
f 510 511 521
f 510 521 520
f 511 512 522
f 511 522 521
f 512 513 523
f 512 523 522
f 513 514 524
f 513 524 523
f 514 515 525
f 514 525 524
f 515 516 526
f 515 526 525
f 516 517 527
f 516 527 526
f 517 518 528
f 517 528 527
f 518 509 519
f 518 519 528
f 519 520 530
f 520 521 531
f 521 522 532
f 522 523 533
f 523 524 534
f 524 525 535
f 525 526 536
f 526 527 537
f 527 528 538
f 528 519 529
